ISO-10303-21;
HEADER;
FILE_DESCRIPTION (( 'STEP AP203' ),
    '1' );
FILE_NAME ('91294A130_NO THREADS_Black-Oxide Alloy Steel Hex Drive Flat Head Screw.STEP',
    '2025-06-03T12:36:26',
    ( 'Administrator' ),
    ( 'Managed by Terraform' ),
    'SwSTEP 2.0',
    'SolidWorks 2017',
    '' );
FILE_SCHEMA (( 'CONFIG_CONTROL_DESIGN' ));
ENDSEC;

DATA;
#1 = APPROVAL_ROLE ( '' ) ;
#2 = EDGE_LOOP ( 'NONE', ( #260, #482 ) ) ;
#3 = ORIENTED_EDGE ( 'NONE', *, *, #619, .F. ) ;
#4 = DIRECTION ( 'NONE',  ( 1.000000000000000000, 0.0000000000000000000, 0.0000000000000000000 ) ) ;
#5 = FACE_OUTER_BOUND ( 'NONE', #615, .T. ) ;
#6 = DIRECTION ( 'NONE',  ( 0.0000000000000000000, 1.000000000000000000, 0.0000000000000000000 ) ) ;
#7 = DIRECTION ( 'NONE',  ( -0.0000000000000000000, -0.0000000000000000000, 1.000000000000000000 ) ) ;
#8 = CARTESIAN_POINT ( 'NONE',  ( 0.0000000000000000000, -1.050000000000000000, -5.000000000000000000 ) ) ;
#9 = ADVANCED_FACE ( 'NONE', ( #151 ), #516, .F. ) ;
#10 = AXIS2_PLACEMENT_3D ( 'NONE', #606, #332, #438 ) ;
#11 = LINE ( 'NONE', #366, #548 ) ;
#12 = DIRECTION ( 'NONE',  ( 0.0000000000000000000, -1.000000000000000000, 0.0000000000000000000 ) ) ;
#13 = ORIENTED_EDGE ( 'NONE', *, *, #315, .F. ) ;
#14 = ORIENTED_EDGE ( 'NONE', *, *, #537, .T. ) ;
#15 = ADVANCED_FACE ( 'NONE', ( #655 ), #140, .T. ) ;
#16 = AXIS2_PLACEMENT_3D ( 'NONE', #302, #225, #184 ) ;
#17 = CARTESIAN_POINT ( 'NONE',  ( -0.6764706046374654400, 0.7641400526929421600, 4.861735735160795700 ) ) ;
#18 = ORIENTED_EDGE ( 'NONE', *, *, #23, .T. ) ;
#19 = LOCAL_TIME ( 7, 36, 26.00000000000000000, #119 ) ;
#20 = LINE ( 'NONE', #521, #668 ) ;
#21 = ORIENTED_EDGE ( 'NONE', *, *, #246, .T. ) ;
#22 = EDGE_LOOP ( 'NONE', ( #467, #420, #422, #563 ) ) ;
#23 = EDGE_CURVE ( 'NONE', #177, #316, #43, .T. ) ;
#24 = VECTOR ( 'NONE', #347, 1000.000000000000000 ) ;
#25 = DIRECTION ( 'NONE',  ( 0.0000000000000000000, 0.0000000000000000000, 1.000000000000000000 ) ) ;
#26 = PLANE ( 'NONE',  #676 ) ;
#27 = EDGE_LOOP ( 'NONE', ( #152, #527, #643, #607 ) ) ;
#28 = MANIFOLD_SOLID_BREP ( 'Cut-Extrude2', #601 ) ;
#29 = EDGE_LOOP ( 'NONE', ( #288, #430, #351, #47 ) ) ;
#30 = DIRECTION ( 'NONE',  ( 1.000000000000000000, 0.0000000000000000000, 0.0000000000000000000 ) ) ;
#31 = ORIENTED_EDGE ( 'NONE', *, *, #329, .F. ) ;
#32 = ADVANCED_FACE ( 'NONE', ( #391 ), #323, .F. ) ;
#33 = EDGE_CURVE ( 'NONE', #543, #65, #114, .T. ) ;
#34 = DIRECTION ( 'NONE',  ( 0.8660254037844386000, -0.4999999999999999400, 0.0000000000000000000 ) ) ;
#35 = CARTESIAN_POINT ( 'NONE',  ( 0.0000000000000000000, -1.252396229748216600E-015, 4.799999999999996300 ) ) ;
#36 = CARTESIAN_POINT ( 'NONE',  ( 0.9999999999999997800, 0.2033615549488403700, 4.845299461620749400 ) ) ;
#37 = VERTEX_POINT ( 'NONE', #283 ) ;
#38 = EDGE_LOOP ( 'NONE', ( #553, #304 ) ) ;
#39 = DIRECTION ( 'NONE',  ( 1.000000000000000000, 0.0000000000000000000, 0.0000000000000000000 ) ) ;
#40 = APPROVAL_DATE_TIME ( #170, #377 ) ;
#41 = LINE ( 'NONE', #502, #238 ) ;
#42 = AXIS2_PLACEMENT_3D ( 'NONE', #526, #261, #63 ) ;
#43 = LINE ( 'NONE', #187, #429 ) ;
#44 = DIRECTION ( 'NONE',  ( -0.0000000000000000000, 1.224646799147353200E-016, -1.000000000000000000 ) ) ;
#45 = AXIS2_PLACEMENT_3D ( 'NONE', #573, #511, #568 ) ;
#46 = EDGE_LOOP ( 'NONE', ( #508, #327, #572, #161 ) ) ;
#47 = ORIENTED_EDGE ( 'NONE', *, *, #355, .F. ) ;
#48 = DIRECTION ( 'NONE',  ( 0.0000000000000000000, 1.000000000000000000, 0.0000000000000000000 ) ) ;
#49 = ADVANCED_FACE ( 'NONE', ( #666 ), #247, .T. ) ;
#50 = EDGE_LOOP ( 'NONE', ( #411, #56 ) ) ;
#51 = CARTESIAN_POINT ( 'NONE',  ( 0.0000000000000000000, -1.050000000000000300, -5.000000000000000000 ) ) ;
#52 = DIRECTION ( 'NONE',  ( 1.000000000000000000, 0.0000000000000000000, 0.0000000000000000000 ) ) ;
#53 = DIRECTION ( 'NONE',  ( 0.0000000000000000000, 1.000000000000000000, 0.0000000000000000000 ) ) ;
#54 = ORIENTED_EDGE ( 'NONE', *, *, #685, .F. ) ;
#55 = DIRECTION ( 'NONE',  ( -1.877893248421449300E-016, 1.000000000000000000, 0.0000000000000000000 ) ) ;
#56 = ORIENTED_EDGE ( 'NONE', *, *, #139, .T. ) ;
#57 = DIRECTION ( 'NONE',  ( 1.000000000000000000, 0.0000000000000000000, 0.0000000000000000000 ) ) ;
#58 = COORDINATED_UNIVERSAL_TIME_OFFSET ( 6, 0, .BEHIND. ) ;
#59 = VECTOR ( 'NONE', #95, 999.9999999999998900 ) ;
#60 = DIRECTION ( 'NONE',  ( -0.0000000000000000000, -0.0000000000000000000, 1.000000000000000000 ) ) ;
#61 = EDGE_CURVE ( 'NONE', #659, #65, #268, .T. ) ;
#62 = DIRECTION ( 'NONE',  ( -0.0000000000000000000, 1.224646799147353200E-016, -1.000000000000000000 ) ) ;
#63 = DIRECTION ( 'NONE',  ( 1.000000000000000000, 0.0000000000000000000, 0.0000000000000000000 ) ) ;
#64 = ORIENTED_EDGE ( 'NONE', *, *, #654, .T. ) ;
#65 = VERTEX_POINT ( 'NONE', #558 ) ;
#66 = PLANE ( 'NONE',  #266 ) ;
#67 = CC_DESIGN_DATE_AND_TIME_ASSIGNMENT ( #554, #532, ( #281 ) ) ;
#68 = EDGE_LOOP ( 'NONE', ( #87, #105, #672, #103 ) ) ;
#69 = DIRECTION ( 'NONE',  ( -0.0000000000000000000, 1.224646799147353200E-016, -1.000000000000000000 ) ) ;
#70 = EDGE_CURVE ( 'NONE', #316, #37, #221, .T. ) ;
#71 = ORGANIZATION ( 'UNSPECIFIED', 'UNSPECIFIED', '' ) ;
#72 = LINE ( 'NONE', #591, #275 ) ;
#73 = CC_DESIGN_APPROVAL ( #377, ( #614 ) ) ;
#74 = ORIENTED_EDGE ( 'NONE', *, *, #619, .T. ) ;
#75 = CARTESIAN_POINT ( 'NONE',  ( -1.000000000000000000, 0.3987098407370236500, 4.910679785773697700 ) ) ;
#76 = VERTEX_POINT ( 'NONE', #340 ) ;
#77 = EDGE_CURVE ( 'NONE', #485, #214, #174, .T. ) ;
#78 = DIRECTION ( 'NONE',  ( -0.0000000000000000000, 0.0000000000000000000, 1.000000000000000000 ) ) ;
#79 = CARTESIAN_POINT ( 'NONE',  ( 1.322726650432315400E-014, 1.154700538379259500, 5.000000000000000000 ) ) ;
#80 = CIRCLE ( 'NONE', #159, 1.050000000000000000 ) ;
#81 = DIRECTION ( 'NONE',  ( 8.659560562354923000E-017, 0.7071067811865465700, 0.7071067811865484600 ) ) ;
#82 = CARTESIAN_POINT ( 'NONE',  ( 0.0000000000000000000, 1.499999999999999800, 3.299999999999999800 ) ) ;
#83 = APPROVAL_PERSON_ORGANIZATION ( #458, #671, #651 ) ;
#84 = LINE ( 'NONE', #397, #540 ) ;
#85 = CARTESIAN_POINT ( 'NONE',  ( 0.07813100402512913900, 1.109591582173287300, 4.954891043794029700 ) ) ;
#86 = CARTESIAN_POINT ( 'NONE',  ( 0.9999999999999997800, 8.494974849167583700E-015, 4.845299461620749400 ) ) ;
#87 = ORIENTED_EDGE ( 'NONE', *, *, #96, .T. ) ;
#88 = EDGE_LOOP ( 'NONE', ( #18, #369, #584, #285, #450, #181 ) ) ;
#89 = DIRECTION ( 'NONE',  ( 0.0000000000000000000, 1.000000000000000000, 1.224646799147353200E-016 ) ) ;
#90 = AXIS2_PLACEMENT_3D ( 'NONE', #372, #207, #6 ) ;
#91 = CARTESIAN_POINT ( 'NONE',  ( 0.0000000000000000000, -1.276889165731164100E-015, 5.000000000000000000 ) ) ;
#92 = FACE_OUTER_BOUND ( 'NONE', #27, .T. ) ;
#93 = CC_DESIGN_PERSON_AND_ORGANIZATION_ASSIGNMENT ( #412, #602, ( #614 ) ) ;
#94 = CYLINDRICAL_SURFACE ( 'NONE', #303, 3.000000000000000000 ) ;
#95 = DIRECTION ( 'NONE',  ( 0.0000000000000000000, -0.7071067811865468000, 0.7071067811865483500 ) ) ;
#96 = EDGE_CURVE ( 'NONE', #468, #543, #235, .T. ) ;
#97 = PERSON ( 'UNSPECIFIED', 'UNSPECIFIED', 'UNSPECIFIED', ('UNSPECIFIED'), ('UNSPECIFIED'), ('UNSPECIFIED') ) ;
#98 = CARTESIAN_POINT ( 'NONE',  ( 0.9999999999999997800, 0.5773502691896332800, 5.000000000000000000 ) ) ;
#99 = CALENDAR_DATE ( 2025, 3, 6 ) ;
#100 = FACE_OUTER_BOUND ( 'NONE', #626, .T. ) ;
#101 = PLANE ( 'NONE',  #464 ) ;
#102 = CARTESIAN_POINT ( 'NONE',  ( -2.584980972891224000E-016, -1.154700538379251200, 3.810000000000000100 ) ) ;
#103 = ORIENTED_EDGE ( 'NONE', *, *, #575, .F. ) ;
#104 = AXIS2_PLACEMENT_3D ( 'NONE', #188, #455, #505 ) ;
#105 = ORIENTED_EDGE ( 'NONE', *, *, #382, .F. ) ;
#106 = CARTESIAN_POINT ( 'NONE',  ( 1.000000000000000000, -0.5773502691896256200, 3.810000000000000100 ) ) ;
#107 = CIRCLE ( 'NONE', #198, 3.000000000000000000 ) ;
#108 = CARTESIAN_POINT ( 'NONE',  ( 0.0000000000000000000, 8.494974849304558300E-015, 5.000000000000000000 ) ) ;
#109 = CARTESIAN_POINT ( 'NONE',  ( 0.0000000000000000000, 2.999999999999998700, 5.000000000000000000 ) ) ;
#110 = EDGE_CURVE ( 'NONE', #197, #485, #597, .T. ) ;
#111 = DATE_TIME_ROLE ( 'classification_date' ) ;
#112 = ADVANCED_FACE ( 'NONE', ( #378 ), #94, .T. ) ;
#113 = CARTESIAN_POINT ( 'NONE',  ( -1.000000000000005600, 0.5773502691896229600, 5.000000000000000000 ) ) ;
#114 = CIRCLE ( 'NONE', #10, 1.154700538379250800 ) ;
#115 = CARTESIAN_POINT ( 'NONE',  ( 0.0000000000000000000, -5.224236658381077400E-017, -5.000000000000000000 ) ) ;
#116 = EDGE_LOOP ( 'NONE', ( #279, #141, #574, #54, #194, #368, #495 ) ) ;
#117 = ORIENTED_EDGE ( 'NONE', *, *, #610, .F. ) ;
#118 = EDGE_CURVE ( 'NONE', #197, #599, #535, .T. ) ;
#119 = COORDINATED_UNIVERSAL_TIME_OFFSET ( 6, 0, .BEHIND. ) ;
#120 = FACE_OUTER_BOUND ( 'NONE', #38, .T. ) ;
#121 = CARTESIAN_POINT ( 'NONE',  ( 1.000000000000000000, -0.5773502691896256200, 3.810000000000000100 ) ) ;
#122 = AXIS2_PLACEMENT_3D ( 'NONE', #595, #314, #582 ) ;
#123 = CC_DESIGN_PERSON_AND_ORGANIZATION_ASSIGNMENT ( #395, #487, ( #614 ) ) ;
#124 = VECTOR ( 'NONE', #353, 1000.000000000000000 ) ;
#125 = CARTESIAN_POINT ( 'NONE',  ( -1.000000000000005600, 0.5773502691896229600, 5.000000000000000000 ) ) ;
#126 = VERTEX_POINT ( 'NONE', #259 ) ;
#127 = EDGE_CURVE ( 'NONE', #613, #543, #463, .T. ) ;
#128 = CARTESIAN_POINT ( 'NONE',  ( 0.6764706046374574500, -0.7641400526929461600, 4.861735735160806400 ) ) ;
#129 = FACE_OUTER_BOUND ( 'NONE', #46, .T. ) ;
#130 = DIRECTION ( 'NONE',  ( -1.000000000000000000, 0.0000000000000000000, -0.0000000000000000000 ) ) ;
#131 = EDGE_CURVE ( 'NONE', #518, #144, #80, .T. ) ;
#132 = DIRECTION ( 'NONE',  ( 0.0000000000000000000, -1.224646799147353200E-016, 1.000000000000000000 ) ) ;
#133 = ORIENTED_EDGE ( 'NONE', *, *, #545, .F. ) ;
#134 = CARTESIAN_POINT ( 'NONE',  ( -1.528725063204561300E-014, -1.154700538379242600, 5.000000000000000000 ) ) ;
#135 = EDGE_LOOP ( 'NONE', ( #431, #446, #74, #494 ) ) ;
#136 = AXIS2_PLACEMENT_3D ( 'NONE', #108, #150, #483 ) ;
#137 = FACE_OUTER_BOUND ( 'NONE', #29, .T. ) ;
#138 = DIRECTION ( 'NONE',  ( 0.5000000000000001100, 0.8660254037844386000, 0.0000000000000000000 ) ) ;
#139 = EDGE_CURVE ( 'NONE', #37, #613, #679, .T. ) ;
#140 = CONICAL_SURFACE ( 'NONE', #45, 1.500000000000000000, 0.7853981633974496100 ) ;
#141 = ORIENTED_EDGE ( 'NONE', *, *, #537, .F. ) ;
#142 = DIRECTION ( 'NONE',  ( 0.8660254037844388200, 0.4999999999999997800, 0.0000000000000000000 ) ) ;
#143 = EDGE_LOOP ( 'NONE', ( #305, #628 ) ) ;
#144 = VERTEX_POINT ( 'NONE', #8 ) ;
#145 = DIRECTION ( 'NONE',  ( -0.0000000000000000000, 1.224646799147353200E-016, -1.000000000000000000 ) ) ;
#146 = APPROVAL_DATE_TIME ( #290, #567 ) ;
#147 = VECTOR ( 'NONE', #81, 1000.000000000000000 ) ;
#148 = CARTESIAN_POINT ( 'NONE',  ( -0.3235293953625457100, -0.9679107548759284800, 4.861735735160808100 ) ) ;
#149 = DIRECTION ( 'NONE',  ( 8.659560562354944000E-017, 0.7071067811865483500, 0.7071067811865466800 ) ) ;
#150 = DIRECTION ( 'NONE',  ( 0.0000000000000000000, 0.0000000000000000000, 1.000000000000000000 ) ) ;
#151 = FACE_OUTER_BOUND ( 'NONE', #50, .T. ) ;
#152 = ORIENTED_EDGE ( 'NONE', *, *, #315, .T. ) ;
#153 =( NAMED_UNIT ( * ) PLANE_ANGLE_UNIT ( ) SI_UNIT ( $, .RADIAN. ) );
#154 = CALENDAR_DATE ( 2025, 3, 6 ) ;
#155 = FACE_OUTER_BOUND ( 'NONE', #465, .T. ) ;
#156 = B_SPLINE_CURVE_WITH_KNOTS ( 'NONE', 3,
 ( #79, #85, #258, #415, #579, #522, #479, #98 ),
 .UNSPECIFIED., .F., .F.,
 ( 4, 2, 2, 4 ),
 ( 2.544396950776374000E-007, 0.0002984430161323487300, 0.0005966315925696199200, 0.001193008745444161900 ),
 .UNSPECIFIED. ) ;
#157 = CARTESIAN_POINT ( 'NONE',  ( 1.154700538379250800, 8.494974849304558300E-015, 5.000000000000000000 ) ) ;
#158 = CARTESIAN_POINT ( 'NONE',  ( 0.9999999999999997800, 0.5773502691896332800, 5.000000000000000000 ) ) ;
#159 = AXIS2_PLACEMENT_3D ( 'NONE', #418, #62, #263 ) ;
#160 = VECTOR ( 'NONE', #149, 1000.000000000000000 ) ;
#161 = ORIENTED_EDGE ( 'NONE', *, *, #219, .F. ) ;
#162 = AXIS2_PLACEMENT_3D ( 'NONE', #362, #7, #474 ) ;
#163 = ORIENTED_EDGE ( 'NONE', *, *, #541, .F. ) ;
#164 = ORIENTED_EDGE ( 'NONE', *, *, #167, .F. ) ;
#165 = ADVANCED_FACE ( 'NONE', ( #356 ), #282, .T. ) ;
#166 = EDGE_CURVE ( 'NONE', #76, #598, #445, .T. ) ;
#167 = EDGE_CURVE ( 'NONE', #497, #406, #11, .T. ) ;
#168 = ORIENTED_EDGE ( 'NONE', *, *, #499, .T. ) ;
#169 = ORIENTED_EDGE ( 'NONE', *, *, #23, .F. ) ;
#170 = DATE_AND_TIME ( #154, #19 ) ;
#171 = FACE_OUTER_BOUND ( 'NONE', #88, .T. ) ;
#172 = AXIS2_PLACEMENT_3D ( 'NONE', #546, #132, #559 ) ;
#173 = ADVANCED_FACE ( 'NONE', ( #301 ), #66, .F. ) ;
#174 = LINE ( 'NONE', #646, #160 ) ;
#175 = CARTESIAN_POINT ( 'NONE',  ( 0.9999999999999997800, 0.3986914069070931500, 4.910670568858730400 ) ) ;
#176 = ORIENTED_EDGE ( 'NONE', *, *, #457, .F. ) ;
#177 = VERTEX_POINT ( 'NONE', #478 ) ;
#178 = CARTESIAN_POINT ( 'NONE',  ( -2.584980972891224000E-016, -1.154700538379251200, 3.810000000000000100 ) ) ;
#179 = EDGE_CURVE ( 'NONE', #485, #197, #209, .T. ) ;
#180 = DIRECTION ( 'NONE',  ( -0.0000000000000000000, 1.224646799147353200E-016, -1.000000000000000000 ) ) ;
#181 = ORIENTED_EDGE ( 'NONE', *, *, #457, .T. ) ;
#182 = CARTESIAN_POINT ( 'NONE',  ( 1.561424668912876200E-016, 1.050000000000000000, -5.000000000000000000 ) ) ;
#183 = CARTESIAN_POINT ( 'NONE',  ( 0.0000000000000000000, 8.494974849304558300E-015, 5.000000000000000000 ) ) ;
#184 = DIRECTION ( 'NONE',  ( 0.0000000000000000000, 1.000000000000000000, 0.0000000000000000000 ) ) ;
#185 = DIRECTION ( 'NONE',  ( -0.8660254037844387100, -0.4999999999999997800, 0.0000000000000000000 ) ) ;
#186 = VERTEX_POINT ( 'NONE', #109 ) ;
#187 = CARTESIAN_POINT ( 'NONE',  ( 0.9999999999999997800, 0.5773502691896260600, 3.810000000000000100 ) ) ;
#188 = CARTESIAN_POINT ( 'NONE',  ( 0.0000000000000000000, -5.224236658381084200E-017, -5.000000000000000000 ) ) ;
#189 = CARTESIAN_POINT ( 'NONE',  ( 1.000000000000000000, -0.3984623138739114600, 4.910556022342147400 ) ) ;
#190 = PERSON_AND_ORGANIZATION ( #97, #71 ) ;
#191 = VECTOR ( 'NONE', #205, 1000.000000000000000 ) ;
#192 = DIRECTION ( 'NONE',  ( -0.0000000000000000000, -0.0000000000000000000, 1.000000000000000000 ) ) ;
#193 = DIRECTION ( 'NONE',  ( 0.8660254037844387100, 0.4999999999999997800, 0.0000000000000000000 ) ) ;
#194 = ORIENTED_EDGE ( 'NONE', *, *, #33, .F. ) ;
#195 = AXIS2_PLACEMENT_3D ( 'NONE', #102, #473, #142 ) ;
#196 = CARTESIAN_POINT ( 'NONE',  ( 0.0000000000000000000, -5.224236658381084200E-017, -5.000000000000000000 ) ) ;
#197 = VERTEX_POINT ( 'NONE', #533 ) ;
#198 = AXIS2_PLACEMENT_3D ( 'NONE', #346, #398, #344 ) ;
#199 = DIRECTION ( 'NONE',  ( 0.0000000000000000000, 1.000000000000000000, 0.0000000000000000000 ) ) ;
#200 = CIRCLE ( 'NONE', #136, 1.154700538379250800 ) ;
#201 = ADVANCED_FACE ( 'NONE', ( #441 ), #476, .F. ) ;
#202 = CARTESIAN_POINT ( 'NONE',  ( -0.8428154764883264400, -0.6681007961515332800, 4.909249473037198700 ) ) ;
#203 = EDGE_CURVE ( 'NONE', #144, #518, #280, .T. ) ;
#204 = APPLICATION_CONTEXT ( 'configuration controlled 3d designs of mechanical parts and assemblies' ) ;
#205 = DIRECTION ( 'NONE',  ( -0.0000000000000000000, 1.224646799147353200E-016, -1.000000000000000000 ) ) ;
#206 = DIRECTION ( 'NONE',  ( -0.0000000000000000000, 1.224646799147353200E-016, -1.000000000000000000 ) ) ;
#207 = DIRECTION ( 'NONE',  ( 0.0000000000000000000, -1.224646799147353200E-016, 1.000000000000000000 ) ) ;
#208 = EDGE_CURVE ( 'NONE', #613, #37, #416, .T. ) ;
#209 = CIRCLE ( 'NONE', #612, 1.500000000000000900 ) ;
#210 = CARTESIAN_POINT ( 'NONE',  ( 0.0000000000000000000, 8.494974849304558300E-015, 5.000000000000000000 ) ) ;
#211 = DIRECTION ( 'NONE',  ( -0.8660254037844388200, -0.4999999999999997800, 0.0000000000000000000 ) ) ;
#212 = APPLICATION_PROTOCOL_DEFINITION ( 'international standard', 'config_control_design', 1994, #204 ) ;
#213 = PLANE ( 'NONE',  #647 ) ;
#214 = VERTEX_POINT ( 'NONE', #376 ) ;
#215 = DIRECTION ( 'NONE',  ( 0.0000000000000000000, -0.7071067811865486800, 0.7071067811865464600 ) ) ;
#216 = ORIENTED_EDGE ( 'NONE', *, *, #284, .F. ) ;
#217 = APPROVAL_STATUS ( 'not_yet_approved' ) ;
#218 = FACE_OUTER_BOUND ( 'NONE', #271, .T. ) ;
#219 = EDGE_CURVE ( 'NONE', #437, #632, #640, .T. ) ;
#220 = SECURITY_CLASSIFICATION_LEVEL ( 'unclassified' ) ;
#221 = LINE ( 'NONE', #631, #124 ) ;
#222 = ADVANCED_FACE ( 'NONE', ( #155 ), #489, .F. ) ;
#223 = CALENDAR_DATE ( 2025, 3, 6 ) ;
#224 = LINE ( 'NONE', #309, #191 ) ;
#225 = DIRECTION ( 'NONE',  ( 0.0000000000000000000, -1.224646799147353200E-016, 1.000000000000000000 ) ) ;
#226 = ADVANCED_FACE ( 'NONE', ( #129 ), #609, .T. ) ;
#227 = ADVANCED_FACE ( 'NONE', ( #504 ), #515, .F. ) ;
#228 = ORIENTED_EDGE ( 'NONE', *, *, #203, .T. ) ;
#229 = ORIENTED_EDGE ( 'NONE', *, *, #419, .T. ) ;
#230 = FACE_OUTER_BOUND ( 'NONE', #433, .T. ) ;
#231 = CARTESIAN_POINT ( 'NONE',  ( 0.1571845235116734700, -1.063950011417343500, 4.909249473037203200 ) ) ;
#232 = AXIS2_PLACEMENT_3D ( 'NONE', #256, #686, #199 ) ;
#233 = CC_DESIGN_APPROVAL ( #567, ( #281 ) ) ;
#234 = CARTESIAN_POINT ( 'NONE',  ( 1.285879139104721500E-016, 1.050000000000000300, -5.000000000000000000 ) ) ;
#235 = LINE ( 'NONE', #477, #490 ) ;
#236 = CARTESIAN_POINT ( 'NONE',  ( 3.673940397442059900E-016, -3.000000000000001300, 4.799999999999996300 ) ) ;
#237 = AXIS2_PLACEMENT_3D ( 'NONE', #562, #239, #293 ) ;
#238 = VECTOR ( 'NONE', #34, 1000.000000000000100 ) ;
#239 = DIRECTION ( 'NONE',  ( -0.0000000000000000000, -0.0000000000000000000, 1.000000000000000000 ) ) ;
#240 = EDGE_CURVE ( 'NONE', #76, #406, #408, .T. ) ;
#241 = PLANE ( 'NONE',  #493 ) ;
#242 = ORIENTED_EDGE ( 'NONE', *, *, #621, .T. ) ;
#243 = ORIENTED_EDGE ( 'NONE', *, *, #208, .F. ) ;
#244 = CARTESIAN_POINT ( 'NONE',  ( 0.0000000000000000000, 0.0000000000000000000, 3.810000000000000100 ) ) ;
#245 = LINE ( 'NONE', #513, #361 ) ;
#246 = EDGE_CURVE ( 'NONE', #126, #186, #684, .T. ) ;
#247 = CYLINDRICAL_SURFACE ( 'NONE', #232, 1.500000000000000900 ) ;
#248 = DIRECTION ( 'NONE',  ( 1.000000000000000000, 0.0000000000000000000, 0.0000000000000000000 ) ) ;
#249 = CARTESIAN_POINT ( 'NONE',  ( -1.000000000000000000, -0.5773502691896157400, 5.000000000000000000 ) ) ;
#250 = ORIENTED_EDGE ( 'NONE', *, *, #166, .T. ) ;
#251 = DIRECTION ( 'NONE',  ( 1.000000000000000000, 1.877893248421449300E-016, 0.0000000000000000000 ) ) ;
#252 = B_SPLINE_CURVE_WITH_KNOTS ( 'NONE', 3,
 ( #452, #616, #343, #128, #336, #291, #231, #289 ),
 .UNSPECIFIED., .F., .F.,
 ( 4, 2, 2, 4 ),
 ( 2.544396950842694000E-007, 0.0002984430161323551800, 0.0005966315925696261000, 0.001193008745444167700 ),
 .UNSPECIFIED. ) ;
#253 = APPROVAL_DATE_TIME ( #674, #671 ) ;
#254 = CONICAL_SURFACE ( 'NONE', #104, 1.050000000000000300, 0.7853981633974471700 ) ;
#255 = CARTESIAN_POINT ( 'NONE',  ( 0.9999999999999911200, -0.5773502691896311700, 5.000000000000000000 ) ) ;
#256 = CARTESIAN_POINT ( 'NONE',  ( 0.0000000000000000000, -5.224236658381086000E-017, -5.000000000000000000 ) ) ;
#257 = CARTESIAN_POINT ( 'NONE',  ( 0.0000000000000000000, -1.068699209876114100E-015, 3.299999999999999800 ) ) ;
#258 = CARTESIAN_POINT ( 'NONE',  ( 0.1580247838118484000, 1.063464886906848400, 4.916536875587607500 ) ) ;
#259 = CARTESIAN_POINT ( 'NONE',  ( 3.673940397442059900E-016, -3.000000000000001300, 5.000000000000000000 ) ) ;
#260 = ORIENTED_EDGE ( 'NONE', *, *, #630, .T. ) ;
#261 = DIRECTION ( 'NONE',  ( 0.0000000000000000000, 0.0000000000000000000, 1.000000000000000000 ) ) ;
#262 = VECTOR ( 'NONE', #670, 1000.000000000000000 ) ;
#263 = DIRECTION ( 'NONE',  ( 0.0000000000000000000, 1.000000000000000000, 0.0000000000000000000 ) ) ;
#264 = ADVANCED_FACE ( 'NONE', ( #675 ), #295, .T. ) ;
#265 = APPROVAL_ROLE ( '' ) ;
#266 = AXIS2_PLACEMENT_3D ( 'NONE', #423, #481, #211 ) ;
#267 = DIRECTION ( 'NONE',  ( 0.0000000000000000000, 0.0000000000000000000, 1.000000000000000000 ) ) ;
#268 = LINE ( 'NONE', #178, #501 ) ;
#269 = AXIS2_PLACEMENT_3D ( 'NONE', #358, #585, #52 ) ;
#270 = APPROVAL_STATUS ( 'not_yet_approved' ) ;
#271 = EDGE_LOOP ( 'NONE', ( #273, #313, #242, #352 ) ) ;
#272 = CARTESIAN_POINT ( 'NONE',  ( -0.8419752161881577400, 0.6685859206620254900, 4.916536875587612000 ) ) ;
#273 = ORIENTED_EDGE ( 'NONE', *, *, #656, .F. ) ;
#274 = LOCAL_TIME ( 7, 36, 26.00000000000000000, #451 ) ;
#275 = VECTOR ( 'NONE', #312, 1000.000000000000000 ) ;
#276 = PRODUCT ( '91294A130_NO THREADS_Black-Oxide Alloy Steel Hex Drive Flat Head Screw', '91294A130_NO THREADS_Black-Oxide Alloy Steel Hex Drive Flat Head Screw', '', ( #310 ) ) ;
#277 = EDGE_CURVE ( 'NONE', #177, #667, #245, .T. ) ;
#278 = VERTEX_POINT ( 'NONE', #627 ) ;
#279 = ORIENTED_EDGE ( 'NONE', *, *, #681, .F. ) ;
#280 = CIRCLE ( 'NONE', #426, 1.050000000000000000 ) ;
#281 = PRODUCT_DEFINITION ( 'UNKNOWN', '', #614, #436 ) ;
#282 = CONICAL_SURFACE ( 'NONE', #338, 1.500000000000000000, 0.7853981633974496100 ) ;
#283 = CARTESIAN_POINT ( 'NONE',  ( 1.322726650432315400E-014, 1.154700538379259500, 5.000000000000000000 ) ) ;
#284 = EDGE_CURVE ( 'NONE', #186, #126, #334, .T. ) ;
#285 = ORIENTED_EDGE ( 'NONE', *, *, #575, .T. ) ;
#286 = EDGE_LOOP ( 'NONE', ( #538, #64, #3, #551 ) ) ;
#287 = CARTESIAN_POINT ( 'NONE',  ( -1.000000000000000000, -0.5773502691896157400, 5.000000000000000000 ) ) ;
#288 = ORIENTED_EDGE ( 'NONE', *, *, #131, .F. ) ;
#289 = CARTESIAN_POINT ( 'NONE',  ( -1.528725063204561300E-014, -1.154700538379242600, 5.000000000000000000 ) ) ;
#290 = DATE_AND_TIME ( #503, #608 ) ;
#291 = CARTESIAN_POINT ( 'NONE',  ( 0.3272472668956600300, -0.9657642407454727400, 4.844872772280250000 ) ) ;
#292 = DIRECTION ( 'NONE',  ( -0.0000000000000000000, -0.0000000000000000000, 1.000000000000000000 ) ) ;
#293 = DIRECTION ( 'NONE',  ( 1.000000000000000000, 0.0000000000000000000, 0.0000000000000000000 ) ) ;
#294 = ORIENTED_EDGE ( 'NONE', *, *, #621, .F. ) ;
#295 = PLANE ( 'NONE',  #375 ) ;
#296 = ORIENTED_EDGE ( 'NONE', *, *, #630, .F. ) ;
#297 = LOCAL_TIME ( 7, 36, 26.00000000000000000, #333 ) ;
#298 = LINE ( 'NONE', #393, #424 ) ;
#299 = CARTESIAN_POINT ( 'NONE',  ( 2.400571874415118400E-016, 1.154700538379251700, 3.810000000000000100 ) ) ;
#300 = DIRECTION ( 'NONE',  ( 0.0000000000000000000, -1.224646799147353200E-016, 1.000000000000000000 ) ) ;
#301 = FACE_OUTER_BOUND ( 'NONE', #439, .T. ) ;
#302 = CARTESIAN_POINT ( 'NONE',  ( 0.0000000000000000000, -1.073514725454419300E-016, -4.549999999999998900 ) ) ;
#303 = AXIS2_PLACEMENT_3D ( 'NONE', #592, #321, #528 ) ;
#304 = ORIENTED_EDGE ( 'NONE', *, *, #33, .T. ) ;
#305 = ORIENTED_EDGE ( 'NONE', *, *, #580, .T. ) ;
#306 = CC_DESIGN_PERSON_AND_ORGANIZATION_ASSIGNMENT ( #190, #642, ( #276 ) ) ;
#307 = EDGE_LOOP ( 'NONE', ( #228, #617 ) ) ;
#308 = DIRECTION ( 'NONE',  ( -0.0000000000000000000, -0.0000000000000000000, 1.000000000000000000 ) ) ;
#309 = CARTESIAN_POINT ( 'NONE',  ( 0.0000000000000000000, 3.000000000000000000, -5.000000000000000000 ) ) ;
#310 = MECHANICAL_CONTEXT ( 'NONE', #204, 'mechanical' ) ;
#311 = CARTESIAN_POINT ( 'NONE',  ( 1.000000000000000000, -0.5773502691896256200, 3.810000000000000100 ) ) ;
#312 = DIRECTION ( 'NONE',  ( -0.0000000000000000000, 1.224646799147353200E-016, -1.000000000000000000 ) ) ;
#313 = ORIENTED_EDGE ( 'NONE', *, *, #179, .F. ) ;
#314 = DIRECTION ( 'NONE',  ( 0.0000000000000000000, 0.0000000000000000000, 1.000000000000000000 ) ) ;
#315 = EDGE_CURVE ( 'NONE', #278, #613, #354, .T. ) ;
#316 = VERTEX_POINT ( 'NONE', #299 ) ;
#317 = CARTESIAN_POINT ( 'NONE',  ( 1.836970198721030900E-016, -1.500000000000000900, -4.549999999999998900 ) ) ;
#318 = B_SPLINE_CURVE_WITH_KNOTS ( 'NONE', 3,
 ( #134, #564, #629, #148, #637, #519, #202, #249 ),
 .UNSPECIFIED., .F., .F.,
 ( 4, 2, 2, 4 ),
 ( 2.544396950921044600E-007, 0.0002984430161323604400, 0.0005966315925696285900, 0.001193008745444165100 ),
 .UNSPECIFIED. ) ;
#319 = APPROVAL_PERSON_ORGANIZATION ( #435, #567, #1 ) ;
#320 = FACE_BOUND ( 'NONE', #116, .T. ) ;
#321 = DIRECTION ( 'NONE',  ( -0.0000000000000000000, 1.224646799147353200E-016, -1.000000000000000000 ) ) ;
#322 = SECURITY_CLASSIFICATION ( '', '', #220 ) ;
#323 = CONICAL_SURFACE ( 'NONE', #237, 1.154700538379250800, 0.7853981633974500600 ) ;
#324 = EDGE_LOOP ( 'NONE', ( #394, #586, #325 ) ) ;
#325 = ORIENTED_EDGE ( 'NONE', *, *, #662, .T. ) ;
#326 = DIRECTION ( 'NONE',  ( 1.000000000000000000, 0.0000000000000000000, 0.0000000000000000000 ) ) ;
#327 = ORIENTED_EDGE ( 'NONE', *, *, #203, .F. ) ;
#328 = ADVANCED_FACE ( 'NONE', ( #120 ), #498, .F. ) ;
#329 = EDGE_CURVE ( 'NONE', #659, #497, #565, .T. ) ;
#330 = DIRECTION ( 'NONE',  ( 0.0000000000000000000, 1.000000000000000000, 0.0000000000000000000 ) ) ;
#331 = ORIENTED_EDGE ( 'NONE', *, *, #685, .T. ) ;
#332 = DIRECTION ( 'NONE',  ( 0.0000000000000000000, 0.0000000000000000000, 1.000000000000000000 ) ) ;
#333 = COORDINATED_UNIVERSAL_TIME_OFFSET ( 6, 0, .BEHIND. ) ;
#334 = CIRCLE ( 'NONE', #449, 3.000000000000000000 ) ;
#335 = ORIENTED_EDGE ( 'NONE', *, *, #110, .F. ) ;
#336 = CARTESIAN_POINT ( 'NONE',  ( 0.5891403177412603000, -0.8145602173408732500, 4.845516201587649600 ) ) ;
#337 = ORIENTED_EDGE ( 'NONE', *, *, #654, .F. ) ;
#338 = AXIS2_PLACEMENT_3D ( 'NONE', #257, #688, #12 ) ;
#339 = CIRCLE ( 'NONE', #531, 1.154700538379250800 ) ;
#340 = CARTESIAN_POINT ( 'NONE',  ( 0.9999999999999997800, 8.494974849167583700E-015, 4.845299461620749400 ) ) ;
#341 = CC_DESIGN_PERSON_AND_ORGANIZATION_ASSIGNMENT ( #623, #364, ( #281 ) ) ;
#342 = DIRECTION ( 'NONE',  ( 0.0000000000000000000, 1.000000000000000000, 0.0000000000000000000 ) ) ;
#343 = CARTESIAN_POINT ( 'NONE',  ( 0.8419752161881465200, -0.6685859206620316000, 4.916536875587617300 ) ) ;
#344 = DIRECTION ( 'NONE',  ( 0.0000000000000000000, 1.000000000000000000, 0.0000000000000000000 ) ) ;
#345 = FACE_OUTER_BOUND ( 'NONE', #143, .T. ) ;
#346 = CARTESIAN_POINT ( 'NONE',  ( 0.0000000000000000000, -1.252396229748216600E-015, 4.799999999999996300 ) ) ;
#347 = DIRECTION ( 'NONE',  ( -0.0000000000000000000, -0.0000000000000000000, 1.000000000000000000 ) ) ;
#348 = DIRECTION ( 'NONE',  ( 0.0000000000000000000, -1.000000000000000000, 0.0000000000000000000 ) ) ;
#349 = ORIENTED_EDGE ( 'NONE', *, *, #70, .T. ) ;
#350 =( GEOMETRIC_REPRESENTATION_CONTEXT ( 3 ) GLOBAL_UNCERTAINTY_ASSIGNED_CONTEXT ( ( #410 ) ) GLOBAL_UNIT_ASSIGNED_CONTEXT ( ( #367, #153, #417 ) ) REPRESENTATION_CONTEXT ( 'NONE', 'WORKASPACE' ) );
#351 = ORIENTED_EDGE ( 'NONE', *, *, #596, .F. ) ;
#352 = ORIENTED_EDGE ( 'NONE', *, *, #219, .T. ) ;
#353 = DIRECTION ( 'NONE',  ( -0.0000000000000000000, -0.0000000000000000000, 1.000000000000000000 ) ) ;
#354 = LINE ( 'NONE', #673, #24 ) ;
#355 = EDGE_CURVE ( 'NONE', #144, #632, #371, .T. ) ;
#356 = FACE_OUTER_BOUND ( 'NONE', #22, .T. ) ;
#357 = DIRECTION ( 'NONE',  ( -0.0000000000000000000, 1.224646799147353200E-016, -1.000000000000000000 ) ) ;
#358 = CARTESIAN_POINT ( 'NONE',  ( 0.0000000000000000000, 0.0000000000000000000, 0.0000000000000000000 ) ) ;
#359 = CARTESIAN_POINT ( 'NONE',  ( 0.0000000000000000000, 8.494974849304558300E-015, 5.000000000000000000 ) ) ;
#360 = DATE_AND_TIME ( #99, #297 ) ;
#361 = VECTOR ( 'NONE', #192, 1000.000000000000000 ) ;
#362 = CARTESIAN_POINT ( 'NONE',  ( 0.0000000000000000000, 8.494974849304558300E-015, 5.000000000000000000 ) ) ;
#363 = CARTESIAN_POINT ( 'NONE',  ( 0.0000000000000000000, 8.494974849304558300E-015, 5.000000000000000000 ) ) ;
#364 = PERSON_AND_ORGANIZATION_ROLE ( 'creator' ) ;
#365 = B_SPLINE_CURVE_WITH_KNOTS ( 'NONE', 3,
 ( #287, #388, #618, #453, #75, #125 ),
 .UNSPECIFIED., .F., .F.,
 ( 4, 2, 4 ),
 ( 0.0006828325726426676300, 0.001281204917509571100, 0.001879577262376474800 ),
 .UNSPECIFIED. ) ;
#366 = CARTESIAN_POINT ( 'NONE',  ( 1.000000000000000000, -0.5773502691896256200, 3.810000000000000100 ) ) ;
#367 =( LENGTH_UNIT ( ) NAMED_UNIT ( * ) SI_UNIT ( .MILLI., .METRE. ) );
#368 = ORIENTED_EDGE ( 'NONE', *, *, #127, .F. ) ;
#369 = ORIENTED_EDGE ( 'NONE', *, *, #541, .T. ) ;
#370 = CARTESIAN_POINT ( 'NONE',  ( -2.584980972891224000E-016, -1.154700538379251200, 3.810000000000000100 ) ) ;
#371 = LINE ( 'NONE', #51, #59 ) ;
#372 = CARTESIAN_POINT ( 'NONE',  ( 0.0000000000000000000, -1.068699209876114100E-015, 3.299999999999999800 ) ) ;
#373 = PERSON_AND_ORGANIZATION_ROLE ( 'classification_officer' ) ;
#374 = ADVANCED_FACE ( 'NONE', ( #171 ), #241, .T. ) ;
#375 = AXIS2_PLACEMENT_3D ( 'NONE', #561, #44, #89 ) ;
#376 = CARTESIAN_POINT ( 'NONE',  ( 0.0000000000000000000, 2.999999999999998700, 4.799999999999996300 ) ) ;
#377 = APPROVAL ( #270, 'UNSPECIFIED' ) ;
#378 = FACE_OUTER_BOUND ( 'NONE', #286, .T. ) ;
#379 = CARTESIAN_POINT ( 'NONE',  ( 1.322726650432315400E-014, 1.154700538379259500, 5.000000000000000000 ) ) ;
#380 = ADVANCED_FACE ( 'NONE', ( #590 ), #657, .F. ) ;
#381 = CIRCLE ( 'NONE', #172, 1.500000000000000900 ) ;
#382 = EDGE_CURVE ( 'NONE', #65, #543, #318, .T. ) ;
#383 = ORIENTED_EDGE ( 'NONE', *, *, #167, .T. ) ;
#384 = AXIS2_PLACEMENT_3D ( 'NONE', #401, #678, #570 ) ;
#385 = ADVANCED_FACE ( 'NONE', ( #230 ), #555, .T. ) ;
#386 = CC_DESIGN_PERSON_AND_ORGANIZATION_ASSIGNMENT ( #589, #373, ( #322 ) ) ;
#387 = LINE ( 'NONE', #234, #147 ) ;
#388 = CARTESIAN_POINT ( 'NONE',  ( -1.000000000000000000, -0.3984438525967628500, 4.910546791703573900 ) ) ;
#389 = DIRECTION ( 'NONE',  ( 1.000000000000000000, 0.0000000000000000000, 0.0000000000000000000 ) ) ;
#390 = AXIS2_PLACEMENT_3D ( 'NONE', #359, #583, #638 ) ;
#391 = FACE_OUTER_BOUND ( 'NONE', #2, .T. ) ;
#392 = DIRECTION ( 'NONE',  ( 0.0000000000000000000, -1.224646799147353200E-016, 1.000000000000000000 ) ) ;
#393 = CARTESIAN_POINT ( 'NONE',  ( -1.000000000000000000, 0.5773502691896260600, 3.810000000000000100 ) ) ;
#394 = ORIENTED_EDGE ( 'NONE', *, *, #166, .F. ) ;
#395 = PERSON_AND_ORGANIZATION ( #97, #71 ) ;
#396 = CONICAL_SURFACE ( 'NONE', #566, 1.154700538379250800, 0.7853981633974500600 ) ;
#397 = CARTESIAN_POINT ( 'NONE',  ( 2.400571874415118400E-016, 1.154700538379251700, 3.810000000000000100 ) ) ;
#398 = DIRECTION ( 'NONE',  ( -0.0000000000000000000, 1.224646799147353200E-016, -1.000000000000000000 ) ) ;
#399 = EDGE_LOOP ( 'NONE', ( #383, #571, #117, #447, #176 ) ) ;
#400 = CARTESIAN_POINT ( 'NONE',  ( 0.0000000000000000000, -5.224236658381086000E-017, -5.000000000000000000 ) ) ;
#401 = CARTESIAN_POINT ( 'NONE',  ( 0.0000000000000000000, -1.276889165731164100E-015, 5.000000000000000000 ) ) ;
#402 = APPROVAL_PERSON_ORGANIZATION ( #539, #377, #265 ) ;
#403 = LINE ( 'NONE', #669, #262 ) ;
#404 = CARTESIAN_POINT ( 'NONE',  ( 0.9999999999999911200, -0.5773502691896311700, 5.000000000000000000 ) ) ;
#405 = CARTESIAN_POINT ( 'NONE',  ( 0.9999999999999997800, 8.494974849167583700E-015, 4.845299461620749400 ) ) ;
#406 = VERTEX_POINT ( 'NONE', #255 ) ;
#407 = AXIS2_PLACEMENT_3D ( 'NONE', #448, #392, #620 ) ;
#408 = B_SPLINE_CURVE_WITH_KNOTS ( 'NONE', 3,
 ( #405, #506, #189, #404 ),
 .UNSPECIFIED., .F., .F.,
 ( 4, 4 ),
 ( 0.001225014348469033500, 0.001822991432323917700 ),
 .UNSPECIFIED. ) ;
#409 = DIRECTION ( 'NONE',  ( -0.8660254037844386000, 0.5000000000000001100, 0.0000000000000000000 ) ) ;
#410 = UNCERTAINTY_MEASURE_WITH_UNIT (LENGTH_MEASURE( 1.000000000000000100E-005 ), #367, 'distance_accuracy_value', 'NONE');
#411 = ORIENTED_EDGE ( 'NONE', *, *, #208, .T. ) ;
#412 = PERSON_AND_ORGANIZATION ( #97, #71 ) ;
#413 = CIRCLE ( 'NONE', #432, 1.154700538379250800 ) ;
#414 = DIRECTION ( 'NONE',  ( -1.877893248421449000E-016, 1.000000000000000000, 0.0000000000000000000 ) ) ;
#415 = CARTESIAN_POINT ( 'NONE',  ( 0.3235293953625369400, 0.9679107548759341400, 4.861735735160793000 ) ) ;
#416 = B_SPLINE_CURVE_WITH_KNOTS ( 'NONE', 3,
 ( #113, #536, #272, #17, #652, #434, #488, #379 ),
 .UNSPECIFIED., .F., .F.,
 ( 4, 2, 2, 4 ),
 ( 2.544396950654620400E-007, 0.0002984430161323442300, 0.0005966315925696230600, 0.001193008745444180300 ),
 .UNSPECIFIED. ) ;
#417 =( NAMED_UNIT ( * ) SI_UNIT ( $, .STERADIAN. ) SOLID_ANGLE_UNIT ( ) );
#418 = CARTESIAN_POINT ( 'NONE',  ( 0.0000000000000000000, -5.224236658381077400E-017, -5.000000000000000000 ) ) ;
#419 = EDGE_CURVE ( 'NONE', #186, #214, #224, .T. ) ;
#420 = ORIENTED_EDGE ( 'NONE', *, *, #179, .T. ) ;
#421 = B_SPLINE_CURVE_WITH_KNOTS ( 'NONE', 3,
 ( #556, #175, #36, #86 ),
 .UNSPECIFIED., .F., .F.,
 ( 4, 4 ),
 ( 0.0006269138418756169600, 0.001225014348469033500 ),
 .UNSPECIFIED. ) ;
#422 = ORIENTED_EDGE ( 'NONE', *, *, #118, .T. ) ;
#423 = CARTESIAN_POINT ( 'NONE',  ( 2.400571874415118400E-016, 1.154700538379251700, 3.810000000000000100 ) ) ;
#424 = VECTOR ( 'NONE', #500, 1000.000000000000000 ) ;
#425 = DIRECTION ( 'NONE',  ( 0.8660254037844386000, -0.4999999999999999400, 0.0000000000000000000 ) ) ;
#426 = AXIS2_PLACEMENT_3D ( 'NONE', #115, #69, #330 ) ;
#427 = DIRECTION ( 'NONE',  ( 0.0000000000000000000, 0.0000000000000000000, 1.000000000000000000 ) ) ;
#428 = CARTESIAN_POINT ( 'NONE',  ( 0.0000000000000000000, -1.068699209876114100E-015, 3.299999999999999800 ) ) ;
#429 = VECTOR ( 'NONE', #557, 1000.000000000000100 ) ;
#430 = ORIENTED_EDGE ( 'NONE', *, *, #525, .T. ) ;
#431 = ORIENTED_EDGE ( 'NONE', *, *, #110, .T. ) ;
#432 = AXIS2_PLACEMENT_3D ( 'NONE', #183, #25, #30 ) ;
#433 = EDGE_LOOP ( 'NONE', ( #337, #21, #229, #133 ) ) ;
#434 = CARTESIAN_POINT ( 'NONE',  ( -0.3272472668956589700, 0.9657642407454738500, 4.844872772280234100 ) ) ;
#435 = PERSON_AND_ORGANIZATION ( #97, #71 ) ;
#436 = DESIGN_CONTEXT ( 'detailed design', #472, 'design' ) ;
#437 = VERTEX_POINT ( 'NONE', #471 ) ;
#438 = DIRECTION ( 'NONE',  ( 1.000000000000000000, 0.0000000000000000000, 0.0000000000000000000 ) ) ;
#439 = EDGE_LOOP ( 'NONE', ( #349, #243, #13, #163 ) ) ;
#440 = SHAPE_DEFINITION_REPRESENTATION ( #588, #444 ) ;
#441 = FACE_OUTER_BOUND ( 'NONE', #560, .T. ) ;
#442 = ADVANCED_FACE ( 'NONE', ( #218 ), #491, .T. ) ;
#443 = PRODUCT_RELATED_PRODUCT_CATEGORY ( 'detail', '', ( #276 ) ) ;
#444 = ADVANCED_BREP_SHAPE_REPRESENTATION ( '91294A130_NO THREADS_Black-Oxide Alloy Steel Hex Drive Flat Head Screw', ( #28, #269 ), #350 ) ;
#445 = LINE ( 'NONE', #157, #569 ) ;
#446 = ORIENTED_EDGE ( 'NONE', *, *, #77, .T. ) ;
#447 = ORIENTED_EDGE ( 'NONE', *, *, #277, .F. ) ;
#448 = CARTESIAN_POINT ( 'NONE',  ( 0.0000000000000000000, -1.276889165731164100E-015, 5.000000000000000000 ) ) ;
#449 = AXIS2_PLACEMENT_3D ( 'NONE', #91, #145, #48 ) ;
#450 = ORIENTED_EDGE ( 'NONE', *, *, #329, .T. ) ;
#451 = COORDINATED_UNIVERSAL_TIME_OFFSET ( 6, 0, .BEHIND. ) ;
#452 = CARTESIAN_POINT ( 'NONE',  ( 0.9999999999999911200, -0.5773502691896311700, 5.000000000000000000 ) ) ;
#453 = CARTESIAN_POINT ( 'NONE',  ( -1.000000000000000000, 0.2034012310318582000, 4.845312263244132100 ) ) ;
#454 = EDGE_LOOP ( 'NONE', ( #658, #296, #605, #169 ) ) ;
#455 = DIRECTION ( 'NONE',  ( 0.0000000000000000000, -1.224646799147353200E-016, 1.000000000000000000 ) ) ;
#456 = ORIENTED_EDGE ( 'NONE', *, *, #246, .F. ) ;
#457 = EDGE_CURVE ( 'NONE', #497, #177, #530, .T. ) ;
#458 = PERSON_AND_ORGANIZATION ( #97, #71 ) ;
#459 = VECTOR ( 'NONE', #193, 1000.000000000000100 ) ;
#460 = CARTESIAN_POINT ( 'NONE',  ( 0.0000000000000000000, 8.494974849304558300E-015, 5.000000000000000000 ) ) ;
#461 = AXIS2_PLACEMENT_3D ( 'NONE', #680, #138, #409 ) ;
#462 = DIRECTION ( 'NONE',  ( -0.0000000000000000000, 1.224646799147353200E-016, -1.000000000000000000 ) ) ;
#463 = CIRCLE ( 'NONE', #122, 1.154700538379250800 ) ;
#464 = AXIS2_PLACEMENT_3D ( 'NONE', #106, #251, #55 ) ;
#465 = EDGE_LOOP ( 'NONE', ( #604, #550, #164, #31 ) ) ;
#466 = DIRECTION ( 'NONE',  ( 0.0000000000000000000, 0.0000000000000000000, 1.000000000000000000 ) ) ;
#467 = ORIENTED_EDGE ( 'NONE', *, *, #77, .F. ) ;
#468 = VERTEX_POINT ( 'NONE', #517 ) ;
#469 = AXIS2_PLACEMENT_3D ( 'NONE', #35, #180, #342 ) ;
#470 = DIRECTION ( 'NONE',  ( -0.0000000000000000000, -0.0000000000000000000, 1.000000000000000000 ) ) ;
#471 = CARTESIAN_POINT ( 'NONE',  ( 0.0000000000000000000, 1.500000000000000900, -4.549999999999998900 ) ) ;
#472 = APPLICATION_CONTEXT ( 'configuration controlled 3d designs of mechanical parts and assemblies' ) ;
#473 = DIRECTION ( 'NONE',  ( 0.4999999999999997800, -0.8660254037844388200, 0.0000000000000000000 ) ) ;
#474 = DIRECTION ( 'NONE',  ( 1.000000000000000000, 0.0000000000000000000, 0.0000000000000000000 ) ) ;
#475 = LOCAL_TIME ( 7, 36, 26.00000000000000000, #58 ) ;
#476 = CONICAL_SURFACE ( 'NONE', #514, 1.154700538379250800, 0.7853981633974500600 ) ;
#477 = CARTESIAN_POINT ( 'NONE',  ( -1.000000000000000000, -0.5773502691896255100, 3.810000000000000100 ) ) ;
#478 = CARTESIAN_POINT ( 'NONE',  ( 0.9999999999999997800, 0.5773502691896260600, 3.810000000000000100 ) ) ;
#479 = CARTESIAN_POINT ( 'NONE',  ( 0.8428154764883212200, 0.6681007961515368400, 4.909249473037188100 ) ) ;
#480 = CC_DESIGN_APPROVAL ( #671, ( #322 ) ) ;
#481 = DIRECTION ( 'NONE',  ( -0.4999999999999997800, 0.8660254037844388200, 0.0000000000000000000 ) ) ;
#482 = ORIENTED_EDGE ( 'NONE', *, *, #681, .T. ) ;
#483 = DIRECTION ( 'NONE',  ( 1.000000000000000000, 0.0000000000000000000, 0.0000000000000000000 ) ) ;
#484 = DIRECTION ( 'NONE',  ( 0.0000000000000000000, -1.224646799147353200E-016, 1.000000000000000000 ) ) ;
#485 = VERTEX_POINT ( 'NONE', #82 ) ;
#486 = CIRCLE ( 'NONE', #42, 1.154700538379250800 ) ;
#487 = PERSON_AND_ORGANIZATION_ROLE ( 'design_supplier' ) ;
#488 = CARTESIAN_POINT ( 'NONE',  ( -0.1571845235116675900, 1.063950011417347500, 4.909249473037188900 ) ) ;
#489 = PLANE ( 'NONE',  #195 ) ;
#490 = VECTOR ( 'NONE', #641, 1000.000000000000000 ) ;
#491 = CYLINDRICAL_SURFACE ( 'NONE', #603, 1.500000000000000900 ) ;
#492 = EDGE_CURVE ( 'NONE', #278, #468, #298, .T. ) ;
#493 = AXIS2_PLACEMENT_3D ( 'NONE', #244, #466, #625 ) ;
#494 = ORIENTED_EDGE ( 'NONE', *, *, #118, .F. ) ;
#495 = ORIENTED_EDGE ( 'NONE', *, *, #139, .F. ) ;
#496 = CARTESIAN_POINT ( 'NONE',  ( -1.000000000000000000, -0.5773502691896157400, 5.000000000000000000 ) ) ;
#497 = VERTEX_POINT ( 'NONE', #121 ) ;
#498 = CONICAL_SURFACE ( 'NONE', #549, 1.154700538379250800, 0.7853981633974500600 ) ;
#499 = EDGE_CURVE ( 'NONE', #406, #65, #252, .T. ) ;
#500 = DIRECTION ( 'NONE',  ( 0.0000000000000000000, -1.000000000000000000, 0.0000000000000000000 ) ) ;
#501 = VECTOR ( 'NONE', #547, 1000.000000000000000 ) ;
#502 = CARTESIAN_POINT ( 'NONE',  ( -1.000000000000000000, -0.5773502691896255100, 3.810000000000000100 ) ) ;
#503 = CALENDAR_DATE ( 2025, 3, 6 ) ;
#504 = FACE_OUTER_BOUND ( 'NONE', #454, .T. ) ;
#505 = DIRECTION ( 'NONE',  ( 0.0000000000000000000, -1.000000000000000000, 0.0000000000000000000 ) ) ;
#506 = CARTESIAN_POINT ( 'NONE',  ( 0.9999999999999997800, -0.2033195896942433800, 4.845299461620749400 ) ) ;
#507 = ORIENTED_EDGE ( 'NONE', *, *, #656, .T. ) ;
#508 = ORIENTED_EDGE ( 'NONE', *, *, #525, .F. ) ;
#509 = CARTESIAN_POINT ( 'NONE',  ( -2.584980972891224000E-016, -1.154700538379251200, 3.810000000000000100 ) ) ;
#510 = ADVANCED_FACE ( 'NONE', ( #92 ), #26, .F. ) ;
#511 = DIRECTION ( 'NONE',  ( 0.0000000000000000000, -1.224646799147353200E-016, 1.000000000000000000 ) ) ;
#512 = CONICAL_SURFACE ( 'NONE', #162, 1.154700538379250800, 0.7853981633974500600 ) ;
#513 = CARTESIAN_POINT ( 'NONE',  ( 0.9999999999999997800, 0.5773502691896260600, 3.810000000000000100 ) ) ;
#514 = AXIS2_PLACEMENT_3D ( 'NONE', #600, #650, #326 ) ;
#515 = PLANE ( 'NONE',  #461 ) ;
#516 = CONICAL_SURFACE ( 'NONE', #390, 1.154700538379250800, 0.7853981633974500600 ) ;
#517 = CARTESIAN_POINT ( 'NONE',  ( -1.000000000000000000, -0.5773502691896255100, 3.810000000000000100 ) ) ;
#518 = VERTEX_POINT ( 'NONE', #182 ) ;
#519 = CARTESIAN_POINT ( 'NONE',  ( -0.6727527331043402500, -0.7662865668234039000, 4.844872772280249200 ) ) ;
#520 = CIRCLE ( 'NONE', #469, 3.000000000000000000 ) ;
#521 = CARTESIAN_POINT ( 'NONE',  ( 3.673940397442059900E-016, -3.000000000000000000, -5.000000000000000000 ) ) ;
#522 = CARTESIAN_POINT ( 'NONE',  ( 0.6727527331043343700, 0.7662865668234079000, 4.844872772280236700 ) ) ;
#523 = CC_DESIGN_DATE_AND_TIME_ASSIGNMENT ( #360, #111, ( #322 ) ) ;
#524 = CARTESIAN_POINT ( 'NONE',  ( 0.0000000000000000000, -1.500000000000001100, 3.299999999999999800 ) ) ;
#525 = EDGE_CURVE ( 'NONE', #518, #437, #387, .T. ) ;
#526 = CARTESIAN_POINT ( 'NONE',  ( 0.0000000000000000000, 8.494974849304558300E-015, 5.000000000000000000 ) ) ;
#527 = ORIENTED_EDGE ( 'NONE', *, *, #580, .F. ) ;
#528 = DIRECTION ( 'NONE',  ( 0.0000000000000000000, 1.000000000000000000, 0.0000000000000000000 ) ) ;
#529 = AXIS2_PLACEMENT_3D ( 'NONE', #677, #308, #39 ) ;
#530 = LINE ( 'NONE', #311, #648 ) ;
#531 = AXIS2_PLACEMENT_3D ( 'NONE', #210, #427, #4 ) ;
#532 = DATE_TIME_ROLE ( 'creation_date' ) ;
#533 = CARTESIAN_POINT ( 'NONE',  ( 1.836970198721031400E-016, -1.500000000000002000, 3.299999999999999800 ) ) ;
#534 = ADVANCED_FACE ( 'NONE', ( #345 ), #396, .F. ) ;
#535 = LINE ( 'NONE', #524, #635 ) ;
#536 = CARTESIAN_POINT ( 'NONE',  ( -0.9218689959748790400, 0.6224592253955855100, 4.954891043794037700 ) ) ;
#537 = EDGE_CURVE ( 'NONE', #598, #667, #413, .T. ) ;
#538 = ORIENTED_EDGE ( 'NONE', *, *, #284, .T. ) ;
#539 = PERSON_AND_ORGANIZATION ( #97, #71 ) ;
#540 = VECTOR ( 'NONE', #185, 1000.000000000000100 ) ;
#541 = EDGE_CURVE ( 'NONE', #316, #278, #84, .T. ) ;
#542 = ORIENTED_EDGE ( 'NONE', *, *, #610, .T. ) ;
#543 = VERTEX_POINT ( 'NONE', #496 ) ;
#544 = CALENDAR_DATE ( 2025, 3, 6 ) ;
#545 = EDGE_CURVE ( 'NONE', #599, #214, #520, .T. ) ;
#546 = CARTESIAN_POINT ( 'NONE',  ( 0.0000000000000000000, -1.073514725454419300E-016, -4.549999999999998900 ) ) ;
#547 = DIRECTION ( 'NONE',  ( -0.0000000000000000000, -0.0000000000000000000, 1.000000000000000000 ) ) ;
#548 = VECTOR ( 'NONE', #60, 1000.000000000000000 ) ;
#549 = AXIS2_PLACEMENT_3D ( 'NONE', #460, #470, #248 ) ;
#550 = ORIENTED_EDGE ( 'NONE', *, *, #499, .F. ) ;
#551 = ORIENTED_EDGE ( 'NONE', *, *, #419, .F. ) ;
#552 = PLANE ( 'NONE',  #407 ) ;
#553 = ORIENTED_EDGE ( 'NONE', *, *, #382, .T. ) ;
#554 = DATE_AND_TIME ( #544, #475 ) ;
#555 = CYLINDRICAL_SURFACE ( 'NONE', #645, 3.000000000000000000 ) ;
#556 = CARTESIAN_POINT ( 'NONE',  ( 0.9999999999999997800, 0.5773502691896332800, 5.000000000000000000 ) ) ;
#557 = DIRECTION ( 'NONE',  ( -0.8660254037844386000, 0.5000000000000001100, 0.0000000000000000000 ) ) ;
#558 = CARTESIAN_POINT ( 'NONE',  ( -1.528725063204561300E-014, -1.154700538379242600, 5.000000000000000000 ) ) ;
#559 = DIRECTION ( 'NONE',  ( 0.0000000000000000000, 1.000000000000000000, 0.0000000000000000000 ) ) ;
#560 = EDGE_LOOP ( 'NONE', ( #542, #250, #14 ) ) ;
#561 = CARTESIAN_POINT ( 'NONE',  ( 0.0000000000000000000, 1.500000000000000900, -5.000000000000000000 ) ) ;
#562 = CARTESIAN_POINT ( 'NONE',  ( 0.0000000000000000000, 8.494974849304558300E-015, 5.000000000000000000 ) ) ;
#563 = ORIENTED_EDGE ( 'NONE', *, *, #545, .T. ) ;
#564 = CARTESIAN_POINT ( 'NONE',  ( -0.07813100402513996300, -1.109591582173281100, 4.954891043794040300 ) ) ;
#565 = LINE ( 'NONE', #509, #459 ) ;
#566 = AXIS2_PLACEMENT_3D ( 'NONE', #663, #292, #389 ) ;
#567 = APPROVAL ( #687, 'UNSPECIFIED' ) ;
#568 = DIRECTION ( 'NONE',  ( 0.0000000000000000000, -1.000000000000000000, 0.0000000000000000000 ) ) ;
#569 = VECTOR ( 'NONE', #587, 1000.000000000000000 ) ;
#570 = DIRECTION ( 'NONE',  ( 0.0000000000000000000, 1.000000000000000000, 0.0000000000000000000 ) ) ;
#571 = ORIENTED_EDGE ( 'NONE', *, *, #240, .F. ) ;
#572 = ORIENTED_EDGE ( 'NONE', *, *, #355, .T. ) ;
#573 = CARTESIAN_POINT ( 'NONE',  ( 0.0000000000000000000, -1.068699209876114100E-015, 3.299999999999999800 ) ) ;
#574 = ORIENTED_EDGE ( 'NONE', *, *, #662, .F. ) ;
#575 = EDGE_CURVE ( 'NONE', #468, #659, #41, .T. ) ;
#576 = ADVANCED_FACE ( 'NONE', ( #320, #5 ), #552, .T. ) ;
#577 = COORDINATED_UNIVERSAL_TIME_OFFSET ( 6, 0, .BEHIND. ) ;
#578 = DIRECTION ( 'NONE',  ( 0.0000000000000000000, 1.000000000000000000, 0.0000000000000000000 ) ) ;
#579 = CARTESIAN_POINT ( 'NONE',  ( 0.4108596822587339300, 0.9174905902280076100, 4.845516201587634500 ) ) ;
#580 = EDGE_CURVE ( 'NONE', #543, #613, #365, .T. ) ;
#581 = CARTESIAN_POINT ( 'NONE',  ( -1.000000000000000000, -0.5773502691896255100, 3.810000000000000100 ) ) ;
#582 = DIRECTION ( 'NONE',  ( 1.000000000000000000, 0.0000000000000000000, 0.0000000000000000000 ) ) ;
#583 = DIRECTION ( 'NONE',  ( -0.0000000000000000000, -0.0000000000000000000, 1.000000000000000000 ) ) ;
#584 = ORIENTED_EDGE ( 'NONE', *, *, #492, .T. ) ;
#585 = DIRECTION ( 'NONE',  ( 0.0000000000000000000, 0.0000000000000000000, 1.000000000000000000 ) ) ;
#586 = ORIENTED_EDGE ( 'NONE', *, *, #240, .T. ) ;
#587 = DIRECTION ( 'NONE',  ( 0.7071067811865487900, 0.0000000000000000000, 0.7071067811865463500 ) ) ;
#588 = PRODUCT_DEFINITION_SHAPE ( 'NONE', 'NONE',  #281 ) ;
#589 = PERSON_AND_ORGANIZATION ( #97, #71 ) ;
#590 = FACE_OUTER_BOUND ( 'NONE', #324, .T. ) ;
#591 = CARTESIAN_POINT ( 'NONE',  ( 1.836970198721030900E-016, -1.500000000000000900, -5.000000000000000000 ) ) ;
#592 = CARTESIAN_POINT ( 'NONE',  ( 0.0000000000000000000, -5.224236658381086000E-017, -5.000000000000000000 ) ) ;
#593 = DIRECTION ( 'NONE',  ( -0.5000000000000000000, -0.8660254037844387100, 0.0000000000000000000 ) ) ;
#594 = CC_DESIGN_SECURITY_CLASSIFICATION ( #322, ( #614 ) ) ;
#595 = CARTESIAN_POINT ( 'NONE',  ( 0.0000000000000000000, 8.494974849304558300E-015, 5.000000000000000000 ) ) ;
#596 = EDGE_CURVE ( 'NONE', #632, #437, #381, .T. ) ;
#597 = CIRCLE ( 'NONE', #90, 1.500000000000000900 ) ;
#598 = VERTEX_POINT ( 'NONE', #664 ) ;
#599 = VERTEX_POINT ( 'NONE', #236 ) ;
#600 = CARTESIAN_POINT ( 'NONE',  ( 0.0000000000000000000, 8.494974849304558300E-015, 5.000000000000000000 ) ) ;
#601 = CLOSED_SHELL ( 'NONE', ( #201, #15, #112, #611, #49, #442, #264, #226, #385, #165, #576, #227, #649, #222, #660, #510, #173, #374, #9, #328, #380, #653, #534, #32 ) ) ;
#602 = PERSON_AND_ORGANIZATION_ROLE ( 'creator' ) ;
#603 = AXIS2_PLACEMENT_3D ( 'NONE', #636, #357, #578 ) ;
#604 = ORIENTED_EDGE ( 'NONE', *, *, #61, .T. ) ;
#605 = ORIENTED_EDGE ( 'NONE', *, *, #70, .F. ) ;
#606 = CARTESIAN_POINT ( 'NONE',  ( 0.0000000000000000000, 8.494974849304558300E-015, 5.000000000000000000 ) ) ;
#607 = ORIENTED_EDGE ( 'NONE', *, *, #492, .F. ) ;
#608 = LOCAL_TIME ( 7, 36, 26.00000000000000000, #577 ) ;
#609 = CONICAL_SURFACE ( 'NONE', #634, 1.050000000000000300, 0.7853981633974471700 ) ;
#610 = EDGE_CURVE ( 'NONE', #667, #76, #421, .T. ) ;
#611 = ADVANCED_FACE ( 'NONE', ( #137 ), #254, .T. ) ;
#612 = AXIS2_PLACEMENT_3D ( 'NONE', #428, #484, #53 ) ;
#613 = VERTEX_POINT ( 'NONE', #624 ) ;
#614 = PRODUCT_DEFINITION_FORMATION_WITH_SPECIFIED_SOURCE ( 'ANY', '', #276, .NOT_KNOWN. ) ;
#615 = EDGE_LOOP ( 'NONE', ( #216, #456 ) ) ;
#616 = CARTESIAN_POINT ( 'NONE',  ( 0.9218689959748658200, -0.6224592253955927300, 4.954891043794040300 ) ) ;
#617 = ORIENTED_EDGE ( 'NONE', *, *, #131, .T. ) ;
#618 = CARTESIAN_POINT ( 'NONE',  ( -1.000000000000000000, -0.2032753359766455400, 4.845286663959760700 ) ) ;
#619 = EDGE_CURVE ( 'NONE', #214, #599, #107, .T. ) ;
#620 = DIRECTION ( 'NONE',  ( 0.0000000000000000000, -1.000000000000000000, -1.224646799147353200E-016 ) ) ;
#621 = EDGE_CURVE ( 'NONE', #485, #437, #403, .T. ) ;
#622 = CARTESIAN_POINT ( 'NONE',  ( -1.000000000000000000, 0.5773502691896260600, 3.810000000000000100 ) ) ;
#623 = PERSON_AND_ORGANIZATION ( #97, #71 ) ;
#624 = CARTESIAN_POINT ( 'NONE',  ( -1.000000000000005600, 0.5773502691896229600, 5.000000000000000000 ) ) ;
#625 = DIRECTION ( 'NONE',  ( 1.000000000000000000, 0.0000000000000000000, -0.0000000000000000000 ) ) ;
#626 = EDGE_LOOP ( 'NONE', ( #168, #331 ) ) ;
#627 = CARTESIAN_POINT ( 'NONE',  ( -1.000000000000000000, 0.5773502691896260600, 3.810000000000000100 ) ) ;
#628 = ORIENTED_EDGE ( 'NONE', *, *, #127, .T. ) ;
#629 = CARTESIAN_POINT ( 'NONE',  ( -0.1580247838118585300, -1.063464886906842600, 4.916536875587619100 ) ) ;
#630 = EDGE_CURVE ( 'NONE', #37, #667, #156, .T. ) ;
#631 = CARTESIAN_POINT ( 'NONE',  ( 2.400571874415118400E-016, 1.154700538379251700, 3.810000000000000100 ) ) ;
#632 = VERTEX_POINT ( 'NONE', #317 ) ;
#633 = FACE_OUTER_BOUND ( 'NONE', #68, .T. ) ;
#634 = AXIS2_PLACEMENT_3D ( 'NONE', #196, #300, #348 ) ;
#635 = VECTOR ( 'NONE', #215, 999.9999999999998900 ) ;
#636 = CARTESIAN_POINT ( 'NONE',  ( 0.0000000000000000000, -5.224236658381086000E-017, -5.000000000000000000 ) ) ;
#637 = CARTESIAN_POINT ( 'NONE',  ( -0.4108596822587420300, -0.9174905902280026100, 4.845516201587647800 ) ) ;
#638 = DIRECTION ( 'NONE',  ( 1.000000000000000000, 0.0000000000000000000, 0.0000000000000000000 ) ) ;
#639 = APPLICATION_PROTOCOL_DEFINITION ( 'international standard', 'config_control_design', 1994, #472 ) ;
#640 = CIRCLE ( 'NONE', #16, 1.500000000000000900 ) ;
#641 = DIRECTION ( 'NONE',  ( -0.0000000000000000000, -0.0000000000000000000, 1.000000000000000000 ) ) ;
#642 = PERSON_AND_ORGANIZATION_ROLE ( 'design_owner' ) ;
#643 = ORIENTED_EDGE ( 'NONE', *, *, #96, .F. ) ;
#644 = EDGE_LOOP ( 'NONE', ( #335, #507, #682, #294 ) ) ;
#645 = AXIS2_PLACEMENT_3D ( 'NONE', #400, #462, #683 ) ;
#646 = CARTESIAN_POINT ( 'NONE',  ( 1.836970198721029900E-016, 1.499999999999998900, 3.299999999999999800 ) ) ;
#647 = AXIS2_PLACEMENT_3D ( 'NONE', #581, #593, #425 ) ;
#648 = VECTOR ( 'NONE', #414, 1000.000000000000000 ) ;
#649 = ADVANCED_FACE ( 'NONE', ( #661 ), #101, .F. ) ;
#650 = DIRECTION ( 'NONE',  ( -0.0000000000000000000, -0.0000000000000000000, 1.000000000000000000 ) ) ;
#651 = APPROVAL_ROLE ( '' ) ;
#652 = CARTESIAN_POINT ( 'NONE',  ( -0.5891403177412666300, 0.8145602173408700300, 4.845516201587635400 ) ) ;
#653 = ADVANCED_FACE ( 'NONE', ( #100 ), #512, .F. ) ;
#654 = EDGE_CURVE ( 'NONE', #126, #599, #20, .T. ) ;
#655 = FACE_OUTER_BOUND ( 'NONE', #135, .T. ) ;
#656 = EDGE_CURVE ( 'NONE', #197, #632, #72, .T. ) ;
#657 = CONICAL_SURFACE ( 'NONE', #529, 1.154700538379250800, 0.7853981633974500600 ) ;
#658 = ORIENTED_EDGE ( 'NONE', *, *, #277, .T. ) ;
#659 = VERTEX_POINT ( 'NONE', #370 ) ;
#660 = ADVANCED_FACE ( 'NONE', ( #633 ), #213, .F. ) ;
#661 = FACE_OUTER_BOUND ( 'NONE', #399, .T. ) ;
#662 = EDGE_CURVE ( 'NONE', #406, #598, #486, .T. ) ;
#663 = CARTESIAN_POINT ( 'NONE',  ( 0.0000000000000000000, 8.494974849304558300E-015, 5.000000000000000000 ) ) ;
#664 = CARTESIAN_POINT ( 'NONE',  ( 1.154700538379250800, 8.494974849304558300E-015, 5.000000000000000000 ) ) ;
#665 = AXIS2_PLACEMENT_3D ( 'NONE', #363, #267, #57 ) ;
#666 = FACE_OUTER_BOUND ( 'NONE', #644, .T. ) ;
#667 = VERTEX_POINT ( 'NONE', #158 ) ;
#668 = VECTOR ( 'NONE', #206, 1000.000000000000000 ) ;
#669 = CARTESIAN_POINT ( 'NONE',  ( 0.0000000000000000000, 1.500000000000000900, -5.000000000000000000 ) ) ;
#670 = DIRECTION ( 'NONE',  ( -0.0000000000000000000, 1.224646799147353200E-016, -1.000000000000000000 ) ) ;
#671 = APPROVAL ( #217, 'UNSPECIFIED' ) ;
#672 = ORIENTED_EDGE ( 'NONE', *, *, #61, .F. ) ;
#673 = CARTESIAN_POINT ( 'NONE',  ( -1.000000000000000000, 0.5773502691896260600, 3.810000000000000100 ) ) ;
#674 = DATE_AND_TIME ( #223, #274 ) ;
#675 = FACE_OUTER_BOUND ( 'NONE', #307, .T. ) ;
#676 = AXIS2_PLACEMENT_3D ( 'NONE', #622, #130, #78 ) ;
#677 = CARTESIAN_POINT ( 'NONE',  ( 0.0000000000000000000, 8.494974849304558300E-015, 5.000000000000000000 ) ) ;
#678 = DIRECTION ( 'NONE',  ( -0.0000000000000000000, 1.224646799147353200E-016, -1.000000000000000000 ) ) ;
#679 = CIRCLE ( 'NONE', #665, 1.154700538379250800 ) ;
#680 = CARTESIAN_POINT ( 'NONE',  ( 0.9999999999999997800, 0.5773502691896260600, 3.810000000000000100 ) ) ;
#681 = EDGE_CURVE ( 'NONE', #667, #37, #339, .T. ) ;
#682 = ORIENTED_EDGE ( 'NONE', *, *, #596, .T. ) ;
#683 = DIRECTION ( 'NONE',  ( 0.0000000000000000000, 1.000000000000000000, 0.0000000000000000000 ) ) ;
#684 = CIRCLE ( 'NONE', #384, 3.000000000000000000 ) ;
#685 = EDGE_CURVE ( 'NONE', #65, #406, #200, .T. ) ;
#686 = DIRECTION ( 'NONE',  ( -0.0000000000000000000, 1.224646799147353200E-016, -1.000000000000000000 ) ) ;
#687 = APPROVAL_STATUS ( 'not_yet_approved' ) ;
#688 = DIRECTION ( 'NONE',  ( 0.0000000000000000000, -1.224646799147353200E-016, 1.000000000000000000 ) ) ;
ENDSEC;
END-ISO-10303-21;
